<svg xmlns="http://www.w3.org/2000/svg" version="1.1" xmlns:xlink="http://www.w3.org/1999/xlink" xmlns:svgjs="http://svgjs.dev/svgjs" width="2000" height="510" viewBox="0 0 2000 510"><g transform="matrix(1,0,0,1,-1.2121212121212466,-2.495073146352354)"><svg viewBox="0 0 396 101" data-background-color="#ffffff" preserveAspectRatio="xMidYMid meet" height="510" width="2000" xmlns="http://www.w3.org/2000/svg" xmlns:xlink="http://www.w3.org/1999/xlink"><g id="tight-bounds" transform="matrix(1,0,0,1,0.2400000000000091,0.49412232898350794)"><svg viewBox="0 0 395.52 100.01154391088933" height="100.01154391088933" width="395.52"><g><svg viewBox="0 0 579.0720880954269 146.42469044833678" height="100.01154391088933" width="395.52"><g transform="matrix(1,0,0,1,183.55208809542697,13.057449927769895)"><svg viewBox="0 0 395.52 120.30979059279699" height="120.30979059279699" width="395.52"><g id="textblocktransform"><svg viewBox="0 0 395.52 120.30979059279699" height="120.30979059279699" width="395.52" id="textblock"><g><rect width="106.79039999999999" height="7.091332950594227" y="105.20828714768334" fill="#ffffff" data-fill-palette-color="tertiary"></rect><rect width="106.79039999999999" height="7.091332950594227" y="105.20828714768334" x="288.7296" fill="#ffffff" data-fill-palette-color="tertiary"></rect></g><g><svg viewBox="0 0 395.52 78.63441782961883" height="78.63441782961883" width="395.52"><g transform="matrix(1,0,0,1,0,0)"><svg width="395.52" viewBox="3.96 -36.23 234.4 46.61" height="78.63441782961883" data-palette-color="#000000"><path d="M27.39 0L3.96 0 3.96-32.93 26.39-32.93 26.39-29.13 8.62-29.13 8.62-18.82 24.93-18.82 24.93-15.06 8.62-15.06 8.62-3.81 27.39-3.81 27.39 0ZM58.3-26.42L47.46 0 42.26 0 31.69-26.42 36.62-26.42 43.16-9.23 43.58-7.93 44.85-3.44 45.7-6.3 46.65-9.18 53.39-26.42 58.3-26.42ZM86.71-12.28L67.87-12.28Q67.87-7.84 69.83-5.32 71.8-2.81 75.21-2.81L75.21-2.81Q77.73-2.81 79.62-3.89 81.51-4.98 82.15-6.86L82.15-6.86 86.01-5.76Q84.93-2.73 82.06-1.12 79.19 0.49 75.21 0.49L75.21 0.49Q69.45 0.49 66.35-3.1 63.25-6.69 63.25-13.38L63.25-13.38Q63.25-19.9 66.29-23.4 69.33-26.9 75.07-26.9L75.07-26.9Q80.81-26.9 83.76-23.41 86.71-19.92 86.71-12.87L86.71-12.87 86.71-12.28ZM75.12-23.66L75.12-23.66Q71.85-23.66 69.94-21.52 68.04-19.38 67.91-15.65L67.91-15.65 82.17-15.65Q81.49-23.66 75.12-23.66ZM115.62 0L111.2 0 111.2-16.97Q111.2-20.29 109.92-21.9 108.64-23.51 105.83-23.51L105.83-23.51Q102.8-23.51 100.86-21.3 98.92-19.09 98.92-15.31L98.92-15.31 98.92 0 94.52 0 94.52-20.78Q94.52-25.39 94.38-26.42L94.38-26.42 98.53-26.42Q98.55-26.29 98.58-25.76 98.6-25.22 98.64-24.52 98.67-23.83 98.72-21.9L98.72-21.9 98.8-21.9Q101.36-26.9 107.24-26.9L107.24-26.9Q111.47-26.9 113.54-24.62 115.62-22.34 115.62-17.6L115.62-17.6 115.62 0ZM128.75-22.95L124.65-22.95 124.65-26.42 128.8-26.42 130.21-33.3 133.14-33.3 133.14-26.42 143.69-26.42 143.69-22.95 133.14-22.95 133.14-7.03Q133.14-5.1 134.18-4.17 135.22-3.25 137.59-3.25L137.59-3.25Q140.86-3.25 144.84-4.08L144.84-4.08 144.84-0.73Q140.71 0.39 136.66 0.39L136.66 0.39Q132.7 0.39 130.73-1.28 128.75-2.95 128.75-6.57L128.75-6.57 128.75-22.95ZM168.2-26.42L168.2-3.47 177.48-3.47 177.48 0 153.5 0 153.5-3.47 163.81-3.47 163.81-22.95 156.02-22.95 156.02-26.42 168.2-26.42ZM168.2-31.54L163.32-31.54 163.32-36.23 168.2-36.23 168.2-31.54ZM206.16-22.95L194.17-22.95 194.17 0 189.78 0 189.78-22.95 183.38-22.95 183.38-26.42 189.78-26.42 189.78-27.03Q189.78-32.03 192.14-34.13 194.49-36.23 199.99-36.23L199.99-36.23Q201.74-36.23 203.78-36.07 205.82-35.91 206.85-35.72L206.85-35.72 206.85-32.18Q206.11-32.3 203.88-32.45 201.65-32.59 200.5-32.59L200.5-32.59Q197.96-32.59 196.66-32.03 195.37-31.47 194.77-30.2 194.17-28.93 194.17-26.66L194.17-26.66 194.17-26.42 206.16-26.42 206.16-22.95ZM217.15 10.38L217.15 10.38Q215.34 10.38 214.12 10.11L214.12 10.11 214.12 6.81Q215.05 6.96 216.17 6.96L216.17 6.96Q218.1 6.96 219.79 5.52 221.49 4.08 222.66 0.93L222.66 0.93 223.1-0.27 211.63-26.42 216.32-26.42 222.76-10.74Q224.98-5.27 225.15-4.54L225.15-4.54 226.15-7.23 233.72-26.42 238.36-26.42 227.23 0Q225.06 5.74 222.72 8.06 220.39 10.38 217.15 10.38Z" opacity="1" transform="matrix(1,0,0,1,0,0)" fill="#ffffff" class="wordmark-text-0" data-fill-palette-color="primary" id="text-0"></path></svg></g></svg></g><g transform="matrix(1,0,0,1,106.79039999999999,97.19811665316392)"><svg viewBox="0 0 181.9392 23.111673939633064" height="23.111673939633064" width="181.9392"><g transform="matrix(1,0,0,1,8,0)"><svg width="165.9392" viewBox="3 -34.55 253.42000000000002 35.3" height="23.111673939633064" data-palette-color="#000000"><path d="M3-34.55L20.15-34.55 19.5-29.8 9.35-29.8 9.35-19.9 18.2-19.9 18.2-15.2 9.35-15.2 9.35-4.8 20.15-4.8 20.15 0 3 0 3-34.55ZM36.9-26.45L42.95-26.45 36.05 0 28.8 0 21.7-26.45 28.05-26.45 32.4-4.95 36.9-26.45ZM64.7-13.85Q64.7-13.4 64.55-11.3L64.55-11.3 50.9-11.3Q51.1-7.2 52.32-5.58 53.55-3.95 55.8-3.95L55.8-3.95Q57.35-3.95 58.6-4.48 59.85-5 61.3-6.15L61.3-6.15 63.85-2.65Q60.35 0.75 55.45 0.75L55.45 0.75Q50.25 0.75 47.47-2.85 44.7-6.45 44.7-13L44.7-13Q44.7-19.55 47.35-23.35 50-27.15 54.85-27.15L54.85-27.15Q59.5-27.15 62.1-23.78 64.7-20.4 64.7-13.85L64.7-13.85ZM58.7-15.3L58.7-15.65Q58.7-19.4 57.8-21.13 56.9-22.85 54.9-22.85L54.9-22.85Q53.05-22.85 52.07-21.18 51.1-19.5 50.9-15.3L50.9-15.3 58.7-15.3ZM81.34-27.15Q84.19-27.15 85.84-25.1 87.49-23.05 87.49-19.6L87.49-19.6 87.49 0 81.34 0 81.34-18.9Q81.34-20.8 80.82-21.63 80.29-22.45 79.29-22.45L79.29-22.45Q77.19-22.45 75.14-18.5L75.14-18.5 75.14 0 68.99 0 68.99-26.45 74.34-26.45 74.79-23Q76.14-25.1 77.67-26.13 79.19-27.15 81.34-27.15L81.34-27.15ZM104.19-5L106.34-1.2Q103.89 0.75 100.59 0.75L100.59 0.75Q97.14 0.75 95.34-1.23 93.54-3.2 93.54-6.6L93.54-6.6 93.54-22 90.44-22 90.44-26.45 93.54-26.45 93.54-32.3 99.69-33.05 99.69-26.45 104.69-26.45 104.09-22 99.69-22 99.69-6.6Q99.69-4.2 101.74-4.2L101.74-4.2Q102.39-4.2 102.89-4.38 103.39-4.55 104.19-5L104.19-5ZM116.24-27.15Q120.94-27.15 124.19-24.05L124.19-24.05 121.84-20.7Q120.44-21.7 119.19-22.2 117.94-22.7 116.64-22.7L116.64-22.7Q115.19-22.7 114.36-21.93 113.54-21.15 113.54-19.8L113.54-19.8Q113.54-18.45 114.46-17.63 115.39-16.8 118.19-15.7L118.19-15.7Q121.64-14.35 123.29-12.5 124.94-10.65 124.94-7.55L124.94-7.55Q124.94-3.7 122.24-1.48 119.54 0.75 115.39 0.75L115.39 0.75Q112.69 0.75 110.41-0.23 108.14-1.2 106.44-2.95L106.44-2.95 109.44-6.25Q112.24-3.8 115.14-3.8L115.14-3.8Q116.79-3.8 117.74-4.67 118.69-5.55 118.69-7.1L118.69-7.1Q118.69-8.25 118.29-8.97 117.89-9.7 116.89-10.33 115.89-10.95 113.89-11.7L113.89-11.7Q110.44-13.05 108.96-14.85 107.49-16.65 107.49-19.45L107.49-19.45Q107.49-22.8 109.86-24.98 112.24-27.15 116.24-27.15L116.24-27.15ZM142.88-21.05L138.83-21.05 138.13-34.55 143.58-34.55 142.88-21.05ZM152.48-21.05L148.43-21.05 147.73-34.55 153.18-34.55 152.48-21.05ZM180.88 0L174.03 0 167.93-13.95 167.33-13.95 164.88-13.95 164.88 0 158.53 0 158.53-34.55 166.68-34.55Q179.18-34.55 179.18-24.4L179.18-24.4Q179.18-21.25 177.78-18.82 176.38-16.4 173.58-15.15L173.58-15.15 180.88 0ZM166.98-18.55Q169.93-18.55 171.26-19.95 172.58-21.35 172.58-24.4L172.58-24.4Q172.58-27.25 171.21-28.58 169.83-29.9 166.68-29.9L166.68-29.9 164.88-29.9 164.88-18.55 166.98-18.55ZM188.18-21.05L184.13-21.05 183.43-34.55 188.88-34.55 188.18-21.05ZM197.78-21.05L193.73-21.05 193.03-34.55 198.48-34.55 197.78-21.05ZM235.02-34.55L235.02-9.7Q235.02-5.15 232.2-2.23 229.37 0.7 224.12 0.7L224.12 0.7Q218.77 0.7 215.97-2.18 213.17-5.05 213.17-9.7L213.17-9.7 213.17-34.55 219.52-34.55 219.52-10Q219.52-7.1 220.62-5.68 221.72-4.25 224.12-4.25L224.12-4.25Q226.47-4.25 227.57-5.68 228.67-7.1 228.67-10L228.67-10 228.67-34.55 235.02-34.55ZM247.72-27.15Q252.42-27.15 255.67-24.05L255.67-24.05 253.32-20.7Q251.92-21.7 250.67-22.2 249.42-22.7 248.12-22.7L248.12-22.7Q246.67-22.7 245.85-21.93 245.02-21.15 245.02-19.8L245.02-19.8Q245.02-18.45 245.95-17.63 246.87-16.8 249.67-15.7L249.67-15.7Q253.12-14.35 254.77-12.5 256.42-10.65 256.42-7.55L256.42-7.55Q256.42-3.7 253.72-1.48 251.02 0.75 246.87 0.75L246.87 0.75Q244.17 0.75 241.9-0.23 239.62-1.2 237.92-2.95L237.92-2.95 240.92-6.25Q243.72-3.8 246.62-3.8L246.62-3.8Q248.27-3.8 249.22-4.67 250.17-5.55 250.17-7.1L250.17-7.1Q250.17-8.25 249.77-8.97 249.37-9.7 248.37-10.33 247.37-10.95 245.37-11.7L245.37-11.7Q241.92-13.05 240.45-14.85 238.97-16.65 238.97-19.45L238.97-19.45Q238.97-22.8 241.35-24.98 243.72-27.15 247.72-27.15L247.72-27.15Z" opacity="1" transform="matrix(1,0,0,1,0,0)" fill="#ffffff" class="slogan-text-1" data-fill-palette-color="secondary" id="text-1"></path></svg></g></svg></g></svg></g></svg></g><g><svg viewBox="0 0 146.42469044833678 146.42469044833678" height="146.42469044833678" width="146.42469044833678"><g><svg></svg></g><g id="icon-0"><svg viewBox="0 0 146.42469044833678 146.42469044833678" height="146.42469044833678" width="146.42469044833678"><g><path d="M0 73.212c0-40.434 32.778-73.212 73.212-73.212 40.434 0 73.212 32.778 73.213 73.212 0 40.434-32.778 73.212-73.213 73.213-40.434 0-73.212-32.778-73.212-73.213zM73.212 139.333c36.518 0 66.121-29.603 66.121-66.121 0-36.518-29.603-66.121-66.121-66.121-36.518 0-66.121 29.603-66.121 66.121 0 36.518 29.603 66.121 66.121 66.121z" data-fill-palette-color="tertiary" fill="#ffffff" stroke="transparent"></path></g><g transform="matrix(1,0,0,1,49.34501356678184,32.07499891280129)"><svg viewBox="0 0 47.7346633147731 82.2746926227342" height="82.2746926227342" width="47.7346633147731"><g><svg xmlns="http://www.w3.org/2000/svg" xmlns:xlink="http://www.w3.org/1999/xlink" version="1.1" x="0" y="0" viewBox="21.679106830508616 1 56.85827385947762 98" enable-background="new 0 0 100 100" xml:space="preserve" height="82.2746926227342" width="47.7346633147731" class="icon-dxe-0" data-fill-palette-color="accent" id="dxe-0"><g fill="#261f20" data-fill-palette-color="accent"><path fill-rule="evenodd" clip-rule="evenodd" d="M30.545 28.822C29.38 36.039 30.875 43.672 37.045 47.863 30.758 19.81 45.756 8.664 59.646 1 43.466 24.046 76.542 24.644 78.423 51.13 80.028 73.71 64.507 91.317 46.639 99 46.845 76.175 24.089 73.067 21.801 54.397 20.905 47.094 25.062 33.766 30.545 28.822" fill="#ffffff" data-fill-palette-color="accent"></path></g></svg></g></svg></g></svg></g></svg></g></svg></g><defs></defs></svg><rect width="395.52" height="100.01154391088933" fill="none" stroke="none" visibility="hidden"></rect></g></svg></g></svg>